<svg width="29" height="29" viewBox="0 0 29 29" fill="none" xmlns="http://www.w3.org/2000/svg">
<path d="M24.5897 4.98622C24.7097 4.98622 24.7591 4.9909 24.8072 4.98543C25.1138 4.91004 25.4376 4.95796 25.7093 5.11877C25.9809 5.27957 26.1787 5.5405 26.26 5.84547C26.3414 6.15054 26.2997 6.4753 26.1442 6.75003C26.0171 7.04561 25.8304 7.31177 25.5957 7.53167C23.0783 9.87763 20.5513 12.213 18.0143 14.538C17.7285 14.7996 17.7113 14.9601 17.956 15.2543C19.8893 17.5789 21.8143 19.9109 23.7303 22.2496C23.9199 22.4799 24.2452 22.7427 23.9364 23.0406C23.6219 23.344 23.3898 22.9897 23.1617 22.7982L22.9198 22.6053C22.228 23.1237 22.1358 23.1281 21.4945 22.525C20.9172 21.9817 20.3639 21.413 19.7985 20.857C19.7058 20.7659 19.6065 20.681 19.5105 20.5929L19.4252 20.656C19.7764 21.184 20.1058 21.7286 20.4871 22.2341C20.7359 22.4853 20.8349 22.8486 20.7478 23.1911C20.7333 23.3456 20.7773 23.4997 20.8713 23.6232C21.1243 24.003 21.4117 24.3596 21.6703 24.7358C21.9755 25.1798 21.9926 25.5161 21.7502 25.8078C21.5048 26.1031 21.1321 26.1437 20.641 25.929C20.5279 25.8702 20.3991 25.8486 20.2729 25.8673C20.4294 26.0461 20.5806 26.2299 20.7439 26.4023C20.982 26.6538 21.1622 26.8963 20.8798 27.2441C20.8268 27.3096 20.8764 27.4931 20.926 27.6003C21.053 27.8753 21.2207 28.1553 20.9209 28.4031C20.615 28.656 20.3666 28.4057 20.0827 28.2819C19.1564 27.7402 18.3562 27.007 17.7358 26.1316C17.5465 25.9324 17.3312 25.7596 17.0958 25.6178C17.4552 26.4186 16.675 26.7637 16.4732 27.325C16.3513 27.6639 15.8572 27.706 15.5251 27.4195V27.4194C15.0336 27.0042 14.5788 26.5473 14.1656 26.0538C12.9577 24.5769 11.7777 23.0767 10.6026 21.5738C10.3791 21.2878 10.2271 21.2785 9.96305 21.5201C8.06005 23.2622 6.14371 24.9895 4.23871 26.7295C3.99197 26.9549 3.79001 27.2287 3.56138 27.4745C3.38833 27.6838 3.14861 27.8271 2.88248 27.8807C2.61633 27.9341 2.33978 27.8943 2.09941 27.768C1.84381 27.6416 1.64121 27.4287 1.52768 27.1671C1.41414 26.9055 1.39695 26.6121 1.47924 26.339C1.52781 26.1298 1.59513 25.9252 1.68055 25.7281C1.7782 25.5416 1.88693 25.3611 2.0062 25.1877C1.1571 24.2768 1.1571 24.2768 1.9851 22.792C1.80659 22.7785 1.6273 22.7809 1.44917 22.7992C1.30815 22.8272 1.17495 22.9723 1.04514 22.9636C0.776257 22.9656 0.510504 22.905 0.269104 22.7864C0.144624 22.7006 0.055564 22.5723 0.018714 22.4256C-0.018136 22.2789 -0.000166766 22.1238 0.0691036 21.9893C0.165067 21.7686 0.289677 21.5614 0.43967 21.3733C2.02184 19.3668 3.783 17.5079 5.70134 15.8199C6.12257 15.4371 6.1236 15.4324 5.8042 14.9823V14.9824C4.23713 12.8151 2.80577 10.5531 1.5182 8.2091C1.44997 8.09334 1.38903 7.97355 1.33578 7.85037C1.25466 7.70727 1.23213 7.53839 1.27315 7.37913C1.31403 7.21989 1.41533 7.08265 1.55544 6.9967C1.69554 6.91063 1.86364 6.88238 2.02417 6.91779L2.29279 6.93954C2.21844 6.70555 2.16311 6.50804 2.09279 6.31557C1.87261 5.7097 1.64346 5.1067 1.42379 4.5002C1.35739 4.35906 1.33252 4.20203 1.35179 4.04734C1.37093 3.89265 1.43369 3.74656 1.53252 3.62597C1.6971 3.40592 1.96325 3.28587 2.23722 3.308C2.51118 3.33027 2.75442 3.49159 2.88148 3.73533C3.09971 4.07777 3.33865 4.40733 3.56832 4.7421L3.6678 4.68728L3.58655 4.18468C3.54358 4.03364 3.55647 3.87218 3.62287 3.72998C3.68928 3.58767 3.80464 3.47412 3.94787 3.40993C4.0898 3.32842 4.2553 3.29769 4.41701 3.32256C4.57886 3.34756 4.72729 3.42673 4.83811 3.54717C5.1191 3.83584 5.38524 4.13924 5.65907 4.4352C5.76519 4.55903 5.88967 4.66593 6.02821 4.752C5.38054 3.24627 5.00671 1.63703 4.92417 0C4.98693 0.09935 5.05568 0.195444 5.1118 0.298437C5.90777 1.76197 6.70334 3.22564 7.49854 4.68944C7.55036 4.78371 7.61585 4.86978 7.69281 4.94491C8.45204 5.68567 9.21404 6.42354 9.97887 7.15844C10.0608 7.23696 10.1845 7.3367 10.2782 7.32641C10.634 7.31964 10.9715 7.48409 11.1853 7.76848C11.659 8.22564 12.1403 8.67604 12.594 9.15248C12.8215 9.39128 12.9736 9.38073 13.2292 9.17917C14.4733 8.1983 15.7133 7.2091 17.0005 6.28697L17.0004 6.2871C17.7362 5.64803 18.6346 5.22513 19.5961 5.06537C19.7376 5.05339 19.8717 4.9099 20.0024 4.81732C21.9436 3.44622 23.8791 2.06759 25.8281 0.707653V0.707783C26.1498 0.488253 26.4988 0.311817 26.8664 0.182917C27.091 0.10375 27.3356 0.101666 27.5617 0.176927C27.7876 0.252317 27.9821 0.400753 28.1143 0.598927C28.2624 0.778094 28.3439 1.00296 28.3451 1.23539C28.3463 1.46782 28.267 1.69359 28.1208 1.87419C27.6973 2.32029 27.2432 2.73603 26.7615 3.11833C26.1371 3.64866 25.4942 4.15753 24.863 4.68006V4.68019C24.7651 4.77589 24.6736 4.87811 24.5894 4.98605L24.5897 4.98622Z" fill="#BF4040"/>
</svg>
